<svg xmlns="http://www.w3.org/2000/svg" xmlns:xlink="http://www.w3.org/1999/xlink" viewBox="0 0 180.79 92.03"><defs><style>.cls-1{fill:url(#Degradado_sin_nombre_15);}.cls-2{fill:#fff;}.cls-3{fill:url(#Degradado_sin_nombre_15-2);}</style><linearGradient id="Degradado_sin_nombre_15" y1="36.34" x2="178.67" y2="36.34" gradientUnits="userSpaceOnUse"><stop offset="0" stop-color="#45ffb8"/><stop offset="1" stop-color="#00c9ff"/></linearGradient><linearGradient id="Degradado_sin_nombre_15-2" x1="66.61" y1="85.88" x2="113.85" y2="85.88" xlink:href="#Degradado_sin_nombre_15"/></defs><g id="Слой_2" data-name="Слой 2"><g id="OBJECTS"><path class="cls-1" d="M178.67,34.86a55.23,55.23,0,0,0-14.77-3.75,18.62,18.62,0,0,1-7-1.48c-1.27-.63-2.49-1.57-3.9-1.49-1.12.06-2.11.76-3.21.88-3.15.35-4.33-3.39-6.2-6.24a2.9,2.9,0,0,0-4.77-.08,3.71,3.71,0,0,1-5.76.29,10.06,10.06,0,0,1-2.59-6.08c-.12-2.17.46-4.37,0-6.5-.59-2.78-4.14-5.42-6.37-1.62a4.48,4.48,0,0,0-.47,3.09q.06.34.09.69c.47,5.48-6.88,7.61-9.76,2.92l-.08-.12a3.44,3.44,0,0,0-6.28,1.24,50.94,50.94,0,0,0-.81,7.79c-.08,3.27-.38,7.39-3.63,8.37a4.67,4.67,0,0,1-5.25-2.2c-2.43-4-.82-8.34-1.17-12.55,0-.06,0-.11,0-.17a3.24,3.24,0,0,0-6-1.33,5.3,5.3,0,0,1-3,2.34,6.31,6.31,0,0,1-7.39-4.12,35.51,35.51,0,0,1-1.69-9.25c-.16-3.34-3.59-7.16-6.5-4.71a4.89,4.89,0,0,0-1.33,2L67.17,16.88A2.52,2.52,0,0,1,64,18.42c-1.28-.48-1.2-1.75-1.56-2.78-1.25-3.51-6.86-2.61-9.13.35s-2.82,7-5.06,9.93c-5.55,7.35-15.19,4.26-22.79,3.66-8.4-.66-17,4-25.46,5.82v1.88c8.48,1.85,17.06,6.48,25.46,5.82,7.6-.6,17.24-3.69,22.79,3.66,2.24,3,2.8,7,5.06,9.93s7.88,3.86,9.13.35c.36-1,.28-2.3,1.56-2.78a2.53,2.53,0,0,1,3.17,1.54l3.71,14.13a4.85,4.85,0,0,0,1.33,2c2.91,2.46,6.34-1.36,6.5-4.71a35.51,35.51,0,0,1,1.69-9.25,6.33,6.33,0,0,1,7.39-4.12,5.3,5.3,0,0,1,3,2.34,3.24,3.24,0,0,0,6-1.33s0-.11,0-.17c.35-4.21-1.26-8.52,1.17-12.55a4.66,4.66,0,0,1,5.25-2.19c3.25,1,3.55,5.1,3.63,8.37a50.81,50.81,0,0,0,.81,7.78,3.44,3.44,0,0,0,6.28,1.24l.08-.12c2.88-4.68,10.23-2.56,9.76,2.92,0,.23,0,.46-.09.7a4.45,4.45,0,0,0,.47,3.08c2.23,3.81,5.78,1.17,6.37-1.62.45-2.12-.13-4.33,0-6.5a10.11,10.11,0,0,1,2.59-6.08,3.71,3.71,0,0,1,5.76.29,2.9,2.9,0,0,0,4.77-.08c1.87-2.85,3.05-6.58,6.2-6.24,1.1.13,2.09.83,3.21.89,1.41.07,2.63-.87,3.9-1.5a18.81,18.81,0,0,1,7-1.48,55.23,55.23,0,0,0,14.77-3.75Z"/><path class="cls-2" d="M4.47,81.23H.84V79.92H9.66v1.31H6v10.6H4.47Z"/><path class="cls-2" d="M11,80.08a16,16,0,0,1,2.95-.24,4.86,4.86,0,0,1,3.44,1,2.93,2.93,0,0,1,.94,2.26,3.14,3.14,0,0,1-2.24,3v0a3,3,0,0,1,1.75,2.4,19.16,19.16,0,0,0,.91,3.27H17.15A15.33,15.33,0,0,1,16.36,89c-.35-1.65-1-2.26-2.39-2.32H12.53v5.16H11Zm1.54,5.43H14.1c1.64,0,2.68-.9,2.68-2.26C16.78,81.71,15.67,81,14,81a6.25,6.25,0,0,0-1.51.14Z"/><path class="cls-2" d="M22.51,88.09l-1.23,3.74h-1.6l4.05-11.91h1.86l4.06,11.91H28l-1.27-3.74Zm3.91-1.2-1.17-3.43c-.26-.78-.44-1.49-.62-2.18h0c-.18.71-.37,1.44-.6,2.16l-1.17,3.45Z"/><path class="cls-2" d="M31.4,91.83V79.92h1.68l3.82,6A34.43,34.43,0,0,1,39,89.82l0,0c-.14-1.59-.17-3-.17-4.89v-5h1.44V91.83H38.79l-3.78-6a38.32,38.32,0,0,1-2.23-4l-.05,0c.09,1.5.12,2.93.12,4.91v5.09Z"/><path class="cls-2" d="M51.36,91.44a7.53,7.53,0,0,1-3.15.57c-3.36,0-5.88-2.12-5.88-6a5.92,5.92,0,0,1,6.22-6.25,6.37,6.37,0,0,1,2.82.53L51,81.51A5.62,5.62,0,0,0,48.6,81C45.81,81,44,82.8,44,85.93c0,2.92,1.68,4.79,4.58,4.79a6,6,0,0,0,2.51-.5Z"/><path class="cls-2" d="M59.45,86.25H54.82v4.29H60v1.29h-6.7V79.92h6.44v1.29h-4.9V85h4.63Z"/><path class="cls-2" d="M77,86.6c-.09-1.66-.2-3.65-.18-5.14h-.05c-.41,1.4-.91,2.88-1.51,4.52l-2.1,5.78H72L70,86.09c-.57-1.68-1-3.22-1.38-4.63h0c0,1.49-.13,3.48-.23,5.27l-.32,5.1H66.61l.83-11.91h2l2,5.76c.49,1.47.9,2.78,1.2,4h0c.3-1.2.72-2.5,1.25-4l2.13-5.76h2l.74,11.91h-1.5Z"/><path class="cls-2" d="M82.68,79.92v7c0,2.67,1.18,3.8,2.77,3.8,1.77,0,2.9-1.16,2.9-3.8v-7H89.9v7C89.9,90.53,88,92,85.4,92s-4.28-1.4-4.28-5.09v-7Z"/><path class="cls-2" d="M92.36,90a5.51,5.51,0,0,0,2.76.78c1.57,0,2.49-.83,2.49-2S97,87,95.37,86.34c-2-.69-3.15-1.7-3.15-3.38,0-1.85,1.54-3.23,3.85-3.23a5.45,5.45,0,0,1,2.64.58l-.43,1.26A4.63,4.63,0,0,0,96,81c-1.62,0-2.24,1-2.24,1.79,0,1.11.72,1.66,2.37,2.29,2,.78,3,1.75,3,3.5S97.82,92,95,92a6.17,6.17,0,0,1-3-.76Z"/><path class="cls-2" d="M102.83,79.92V91.83h-1.54V79.92Z"/><path class="cls-2" d="M113.84,91.44a7.53,7.53,0,0,1-3.15.57c-3.36,0-5.88-2.12-5.88-6A5.92,5.92,0,0,1,111,79.73a6.37,6.37,0,0,1,2.82.53l-.37,1.25a5.62,5.62,0,0,0-2.4-.49c-2.79,0-4.65,1.78-4.65,4.91,0,2.92,1.68,4.79,4.58,4.79a6,6,0,0,0,2.51-.5Z"/><path class="cls-3" d="M77,86.6c-.09-1.66-.2-3.65-.18-5.14h-.05c-.41,1.4-.91,2.88-1.51,4.52l-2.1,5.78H72L70,86.09c-.57-1.68-1-3.22-1.38-4.63h0c0,1.49-.13,3.48-.23,5.27l-.32,5.1H66.61l.83-11.91h2l2,5.76c.49,1.47.9,2.78,1.2,4h0c.3-1.2.72-2.5,1.25-4l2.13-5.76h2l.74,11.91h-1.5Z"/><path class="cls-3" d="M82.68,79.92v7c0,2.67,1.18,3.8,2.77,3.8,1.77,0,2.9-1.16,2.9-3.8v-7H89.9v7C89.9,90.53,88,92,85.4,92s-4.28-1.4-4.28-5.09v-7Z"/><path class="cls-3" d="M92.36,90a5.51,5.51,0,0,0,2.76.78c1.57,0,2.49-.83,2.49-2S97,87,95.37,86.34c-2-.69-3.15-1.7-3.15-3.38,0-1.85,1.54-3.23,3.85-3.23a5.45,5.45,0,0,1,2.64.58l-.43,1.26A4.63,4.63,0,0,0,96,81c-1.62,0-2.24,1-2.24,1.79,0,1.11.72,1.66,2.37,2.29,2,.78,3,1.75,3,3.5S97.82,92,95,92a6.17,6.17,0,0,1-3-.76Z"/><path class="cls-3" d="M102.83,79.92V91.83h-1.54V79.92Z"/><path class="cls-3" d="M113.84,91.44a7.53,7.53,0,0,1-3.15.57c-3.36,0-5.88-2.12-5.88-6A5.92,5.92,0,0,1,111,79.73a6.37,6.37,0,0,1,2.82.53l-.37,1.25a5.62,5.62,0,0,0-2.4-.49c-2.79,0-4.65,1.78-4.65,4.91,0,2.92,1.68,4.79,4.58,4.79a6,6,0,0,0,2.51-.5Z"/><path class="cls-2" d="M120.71,79.92h1.54V90.54h5.09v1.29h-6.63Z"/><path class="cls-2" d="M130.59,79.92V91.83h-1.53V79.92Z"/><path class="cls-2" d="M133.28,80.08a15.07,15.07,0,0,1,2.81-.24,4.92,4.92,0,0,1,3.27.86,2.5,2.5,0,0,1,1,2.1,2.83,2.83,0,0,1-2,2.62v0a3.07,3.07,0,0,1,2.45,3,3.19,3.19,0,0,1-1,2.39c-.83.76-2.17,1.11-4.11,1.11a18.2,18.2,0,0,1-2.39-.14ZM134.82,85h1.4c1.62,0,2.57-.85,2.57-2,0-1.39-1-1.94-2.61-1.94a7,7,0,0,0-1.36.1Zm0,5.71a8.6,8.6,0,0,0,1.29.07c1.59,0,3.06-.59,3.06-2.32s-1.4-2.29-3.08-2.29h-1.27Z"/><path class="cls-2" d="M142.86,80.08a16,16,0,0,1,2.95-.24,4.89,4.89,0,0,1,3.45,1,3,3,0,0,1,.93,2.26,3.14,3.14,0,0,1-2.24,3v0a3,3,0,0,1,1.75,2.4,18.86,18.86,0,0,0,.92,3.27H149a15,15,0,0,1-.8-2.84c-.35-1.65-1-2.26-2.38-2.32H144.4v5.16h-1.54Zm1.54,5.43H146c1.64,0,2.69-.9,2.69-2.26,0-1.54-1.12-2.21-2.74-2.23a6.42,6.42,0,0,0-1.52.14Z"/><path class="cls-2" d="M154.38,88.09l-1.23,3.74h-1.59l4-11.91h1.86l4.06,11.91h-1.64l-1.27-3.74Zm3.91-1.2-1.17-3.43c-.26-.78-.44-1.49-.61-2.18h0c-.18.71-.37,1.44-.6,2.16l-1.17,3.45Z"/><path class="cls-2" d="M163.28,80.08a15.91,15.91,0,0,1,2.95-.24,4.86,4.86,0,0,1,3.44,1,3,3,0,0,1,.94,2.26,3.13,3.13,0,0,1-2.25,3v0a3,3,0,0,1,1.75,2.4,19.85,19.85,0,0,0,.92,3.27h-1.59a15.33,15.33,0,0,1-.79-2.84c-.36-1.65-1-2.26-2.39-2.32h-1.45v5.16h-1.53Zm1.53,5.43h1.58c1.64,0,2.68-.9,2.68-2.26,0-1.54-1.11-2.21-2.74-2.23a6.42,6.42,0,0,0-1.52.14Z"/><path class="cls-2" d="M175.24,91.83v-5l-3.76-6.86h1.75l1.68,3.29c.46.9.81,1.63,1.18,2.46h0c.33-.78.74-1.56,1.2-2.46L179,79.92h1.75l-4,6.84v5.07Z"/></g></g></svg>